<svg width="578" height="572" viewBox="0 0 578 572" fill="none" xmlns="http://www.w3.org/2000/svg">
<path d="M160.767 404.442C137.315 404.442 132.682 388.442 132.682 361.923C61.7865 464.44 90.1334 565.776 196.75 565.776M293.506 199.776C271.006 174.276 247.645 149.153 231.401 129.775C196.75 83.1089 204.746 43.1089 208.745 13.7756C124.784 79.1089 120.785 153.776 139.444 201.776C158.102 249.776 147.44 283.109 120.785 283.109C94.1313 283.109 73.0057 251.276 83.4696 196.442C-69.7918 375.109 23.4987 565.776 196.75 565.776M196.75 565.776C264.67 565.776 377.506 530.276 380.006 414.276M196.75 565.776C251.391 565.776 291.006 536.276 291.006 494.776" stroke="#FF6565" stroke-width="12" stroke-linecap="round"/>
<path d="M184.293 386.276C189.662 374.213 190.522 358.551 186.088 347.109C177.822 325.775 171.006 294.776 202.06 260.442C199.506 280.776 202.06 308.267 217.506 327.776C228.639 341.837 250.506 365.776 272.006 404.442" stroke="#FF6565" stroke-width="12" stroke-linecap="round"/>
<path d="M184.506 385.776C146.006 469.776 270.006 467.276 328.506 367.776M198.006 565.776C209.954 524.736 280.506 483.276 316.006 444.776C351.506 406.276 436.506 304.629 447.006 291.776C451.903 285.78 492.64 325.825 522.506 309.276C552.372 292.726 571.506 257.276 571.506 219.776C511.506 306.276 492.006 281.276 447.006 225.276C423.506 198.776 424.574 180.776 435.506 167.776C446.438 154.776 465.643 150.776 480.006 161.276C494.368 171.776 491.006 196.776 484.506 206.776C478.006 216.776 451.506 235.276 396.006 206.776C340.506 178.276 269.006 219.776 269.006 298.276C304.544 246.528 348.506 228.553 361.006 238.276C373.506 247.998 379.16 271.276 353.006 305.276C333.006 331.276 325.326 346.776 328.506 362.276C331.685 377.776 354.506 395.276 381.006 395.276C407.506 395.276 430.006 399.776 430.006 410.276C430.006 420.775 397.006 493.276 391.506 503.776C400.006 498.276 491.506 424.776 481.006 389.776C470.506 354.776 421.006 353.276 421.006 353.276" stroke="#FF6565" stroke-width="12" stroke-linecap="round"/>
</svg>
